<svg width="380" height="195" viewBox="0 0 380 195" fill="none" xmlns="http://www.w3.org/2000/svg">
<g clip-path="url(#clip0_1_47)">
<circle cx="163" cy="106" r="37" fill="#4B3AB8"/>
<circle cx="187" cy="106" r="25" fill="white"/>
<path d="M177.62 118V115.975L181.4 114.895V93.43L177.575 92.395V90.37H190.445C192.095 90.37 193.67 90.67 195.17 91.27C196.67 91.87 197.885 92.755 198.815 93.925C199.775 95.095 200.255 96.565 200.255 98.335C200.255 99.895 199.94 101.23 199.31 102.34C198.71 103.45 197.9 104.365 196.88 105.085C195.89 105.775 194.78 106.285 193.55 106.615C192.35 106.915 191.135 107.065 189.905 107.065C189.875 107.065 189.68 107.065 189.32 107.065C188.99 107.035 188.63 107.005 188.24 106.975C187.88 106.945 187.625 106.915 187.475 106.885V114.895L192.245 115.93V118H177.62ZM188.825 104.815C189.995 104.815 190.97 104.545 191.75 104.005C192.53 103.435 193.115 102.685 193.505 101.755C193.895 100.825 194.09 99.79 194.09 98.65C194.09 97.03 193.715 95.725 192.965 94.735C192.245 93.715 191.24 93.205 189.95 93.205C189.56 93.205 189.14 93.22 188.69 93.25C188.27 93.28 187.865 93.34 187.475 93.43V104.68C187.625 104.71 187.805 104.74 188.015 104.77C188.255 104.8 188.525 104.815 188.825 104.815ZM207.143 118.45C206.033 118.45 205.073 118.225 204.263 117.775C203.483 117.325 202.883 116.68 202.463 115.84C202.043 115 201.833 114.025 201.833 112.915C201.833 112.105 201.998 111.265 202.328 110.395C202.658 109.495 203.243 108.685 204.083 107.965C204.923 107.215 206.093 106.69 207.593 106.39L213.668 105.13V101.98C213.668 100.78 213.443 99.955 212.993 99.505C212.573 99.055 211.838 98.83 210.788 98.83C210.218 98.83 209.678 98.89 209.168 99.01C208.688 99.1 208.223 99.22 207.773 99.37L206.873 103.15H203.903L203.138 97.075C204.548 96.565 206.033 96.16 207.593 95.86C209.183 95.56 210.803 95.41 212.453 95.41C213.953 95.41 215.243 95.575 216.323 95.905C217.433 96.205 218.273 96.76 218.843 97.57C219.443 98.38 219.743 99.535 219.743 101.035V114.265L223.028 115.525V117.46C221.978 117.73 221.123 117.925 220.463 118.045C219.803 118.165 219.083 118.225 218.303 118.225C217.343 118.225 216.413 118.03 215.513 117.64C214.613 117.25 214.043 116.65 213.803 115.84C212.693 116.65 211.628 117.295 210.608 117.775C209.588 118.225 208.433 118.45 207.143 118.45ZM210.113 114.805C210.743 114.805 211.388 114.67 212.048 114.4C212.738 114.13 213.278 113.86 213.668 113.59V107.74L210.968 108.415C209.768 108.715 208.928 109.195 208.448 109.855C207.998 110.485 207.773 111.295 207.773 112.285C207.773 113.155 207.983 113.8 208.403 114.22C208.823 114.61 209.393 114.805 210.113 114.805ZM228.728 125.56C228.038 125.56 227.228 125.455 226.298 125.245C225.398 125.035 224.438 124.705 223.418 124.255L223.778 122.185H226.703C227.783 122.185 228.698 121.915 229.448 121.375C230.228 120.865 230.873 120.19 231.383 119.35C231.923 118.54 232.358 117.7 232.688 116.83L224.993 98.875L222.743 97.66V95.86H233.543V97.66L231.428 98.875L235.748 110.17L239.528 98.965L236.648 98.335V95.86H246.413V98.2L243.578 98.965L237.188 116.47C236.168 119.29 235.013 121.51 233.723 123.13C232.433 124.75 230.768 125.56 228.728 125.56ZM246.91 118V115.75L250.42 114.85V99.82L246.91 99.325V97.165L254.47 95.41H256.495V97.48C257.485 96.82 258.595 96.295 259.825 95.905C261.055 95.485 262.18 95.275 263.2 95.275C263.38 95.275 263.605 95.275 263.875 95.275C264.175 95.275 264.385 95.29 264.505 95.32L263.65 103.375H260.365L259.42 99.235C258.94 99.235 258.43 99.295 257.89 99.415C257.38 99.535 256.915 99.715 256.495 99.955V114.85L261.715 115.75V118H246.91ZM276.656 118.45C274.046 118.45 271.931 117.925 270.311 116.875C268.691 115.825 267.506 114.445 266.756 112.735C266.006 110.995 265.631 109.09 265.631 107.02C265.631 104.86 265.991 102.91 266.711 101.17C267.461 99.4 268.646 98.005 270.266 96.985C271.886 95.935 274.016 95.41 276.656 95.41C279.386 95.41 281.561 95.935 283.181 96.985C284.831 98.005 286.016 99.4 286.736 101.17C287.486 102.91 287.861 104.86 287.861 107.02C287.861 109.09 287.486 110.995 286.736 112.735C285.986 114.445 284.786 115.825 283.136 116.875C281.516 117.925 279.356 118.45 276.656 118.45ZM276.836 115.39C278.096 115.39 279.041 115.015 279.671 114.265C280.331 113.515 280.766 112.51 280.976 111.25C281.216 109.96 281.336 108.52 281.336 106.93C281.336 105.31 281.201 103.87 280.931 102.61C280.691 101.32 280.226 100.315 279.536 99.595C278.846 98.845 277.856 98.47 276.566 98.47C275.366 98.47 274.451 98.845 273.821 99.595C273.191 100.315 272.756 101.32 272.516 102.61C272.276 103.87 272.156 105.31 272.156 106.93C272.156 108.52 272.276 109.96 272.516 111.25C272.786 112.51 273.251 113.515 273.911 114.265C274.601 115.015 275.576 115.39 276.836 115.39ZM289.658 118V115.75L293.168 114.85V89.515L289.658 89.02V86.86L297.263 85.105H299.243V114.85L302.753 115.75V118H289.658ZM304.82 118V115.75L308.33 114.85V89.515L304.82 89.02V86.86L312.425 85.105H314.405V114.85L317.915 115.75V118H304.82Z" fill="#4B3AB8"/>
</g>
<defs>
<clipPath id="clip0_1_47">
<rect width="380" height="195" fill="white"/>
</clipPath>
</defs>
</svg>
