<svg width="427" height="212" viewBox="0 0 427 212" fill="none" xmlns="http://www.w3.org/2000/svg">
<circle cx="160" cy="112" r="37" fill="#FD2156"/>
<circle cx="184" cy="112" r="25" fill="white"/>
<path d="M174.62 124V121.975L178.4 120.895V99.43L174.575 98.395V96.37H187.445C189.095 96.37 190.67 96.67 192.17 97.27C193.67 97.87 194.885 98.755 195.815 99.925C196.775 101.095 197.255 102.565 197.255 104.335C197.255 105.895 196.94 107.23 196.31 108.34C195.71 109.45 194.9 110.365 193.88 111.085C192.89 111.775 191.78 112.285 190.55 112.615C189.35 112.915 188.135 113.065 186.905 113.065C186.875 113.065 186.68 113.065 186.32 113.065C185.99 113.035 185.63 113.005 185.24 112.975C184.88 112.945 184.625 112.915 184.475 112.885V120.895L189.245 121.93V124H174.62ZM185.825 110.815C186.995 110.815 187.97 110.545 188.75 110.005C189.53 109.435 190.115 108.685 190.505 107.755C190.895 106.825 191.09 105.79 191.09 104.65C191.09 103.03 190.715 101.725 189.965 100.735C189.245 99.715 188.24 99.205 186.95 99.205C186.56 99.205 186.14 99.22 185.69 99.25C185.27 99.28 184.865 99.34 184.475 99.43V110.68C184.625 110.71 184.805 110.74 185.015 110.77C185.255 110.8 185.525 110.815 185.825 110.815ZM204.143 124.45C203.033 124.45 202.073 124.225 201.263 123.775C200.483 123.325 199.883 122.68 199.463 121.84C199.043 121 198.833 120.025 198.833 118.915C198.833 118.105 198.998 117.265 199.328 116.395C199.658 115.495 200.243 114.685 201.083 113.965C201.923 113.215 203.093 112.69 204.593 112.39L210.668 111.13V107.98C210.668 106.78 210.443 105.955 209.993 105.505C209.573 105.055 208.838 104.83 207.788 104.83C207.218 104.83 206.678 104.89 206.168 105.01C205.688 105.1 205.223 105.22 204.773 105.37L203.873 109.15H200.903L200.138 103.075C201.548 102.565 203.033 102.16 204.593 101.86C206.183 101.56 207.803 101.41 209.453 101.41C210.953 101.41 212.243 101.575 213.323 101.905C214.433 102.205 215.273 102.76 215.843 103.57C216.443 104.38 216.743 105.535 216.743 107.035V120.265L220.028 121.525V123.46C218.978 123.73 218.123 123.925 217.463 124.045C216.803 124.165 216.083 124.225 215.303 124.225C214.343 124.225 213.413 124.03 212.513 123.64C211.613 123.25 211.043 122.65 210.803 121.84C209.693 122.65 208.628 123.295 207.608 123.775C206.588 124.225 205.433 124.45 204.143 124.45ZM207.113 120.805C207.743 120.805 208.388 120.67 209.048 120.4C209.738 120.13 210.278 119.86 210.668 119.59V113.74L207.968 114.415C206.768 114.715 205.928 115.195 205.448 115.855C204.998 116.485 204.773 117.295 204.773 118.285C204.773 119.155 204.983 119.8 205.403 120.22C205.823 120.61 206.393 120.805 207.113 120.805ZM225.728 131.56C225.038 131.56 224.228 131.455 223.298 131.245C222.398 131.035 221.438 130.705 220.418 130.255L220.778 128.185H223.703C224.783 128.185 225.698 127.915 226.448 127.375C227.228 126.865 227.873 126.19 228.383 125.35C228.923 124.54 229.358 123.7 229.688 122.83L221.993 104.875L219.743 103.66V101.86H230.543V103.66L228.428 104.875L232.748 116.17L236.528 104.965L233.648 104.335V101.86H243.413V104.2L240.578 104.965L234.188 122.47C233.168 125.29 232.013 127.51 230.723 129.13C229.433 130.75 227.768 131.56 225.728 131.56ZM243.91 124V121.75L247.42 120.85V105.82L243.91 105.325V103.165L251.47 101.41H253.495V103.48C254.485 102.82 255.595 102.295 256.825 101.905C258.055 101.485 259.18 101.275 260.2 101.275C260.38 101.275 260.605 101.275 260.875 101.275C261.175 101.275 261.385 101.29 261.505 101.32L260.65 109.375H257.365L256.42 105.235C255.94 105.235 255.43 105.295 254.89 105.415C254.38 105.535 253.915 105.715 253.495 105.955V120.85L258.715 121.75V124H243.91ZM273.656 124.45C271.046 124.45 268.931 123.925 267.311 122.875C265.691 121.825 264.506 120.445 263.756 118.735C263.006 116.995 262.631 115.09 262.631 113.02C262.631 110.86 262.991 108.91 263.711 107.17C264.461 105.4 265.646 104.005 267.266 102.985C268.886 101.935 271.016 101.41 273.656 101.41C276.386 101.41 278.561 101.935 280.181 102.985C281.831 104.005 283.016 105.4 283.736 107.17C284.486 108.91 284.861 110.86 284.861 113.02C284.861 115.09 284.486 116.995 283.736 118.735C282.986 120.445 281.786 121.825 280.136 122.875C278.516 123.925 276.356 124.45 273.656 124.45ZM273.836 121.39C275.096 121.39 276.041 121.015 276.671 120.265C277.331 119.515 277.766 118.51 277.976 117.25C278.216 115.96 278.336 114.52 278.336 112.93C278.336 111.31 278.201 109.87 277.931 108.61C277.691 107.32 277.226 106.315 276.536 105.595C275.846 104.845 274.856 104.47 273.566 104.47C272.366 104.47 271.451 104.845 270.821 105.595C270.191 106.315 269.756 107.32 269.516 108.61C269.276 109.87 269.156 111.31 269.156 112.93C269.156 114.52 269.276 115.96 269.516 117.25C269.786 118.51 270.251 119.515 270.911 120.265C271.601 121.015 272.576 121.39 273.836 121.39ZM286.658 124V121.75L290.168 120.85V95.515L286.658 95.02V92.86L294.263 91.105H296.243V120.85L299.753 121.75V124H286.658ZM301.82 124V121.75L305.33 120.85V95.515L301.82 95.02V92.86L309.425 91.105H311.405V120.85L314.915 121.75V124H301.82Z" fill="white"/>
</svg>
