<svg width="523" height="211" viewBox="0 0 523 211" fill="none" xmlns="http://www.w3.org/2000/svg">
<circle cx="178" cy="95" r="37" fill="#FD2156"/>
<circle cx="202" cy="95" r="25" fill="white"/>
<path d="M192.62 107V104.975L196.4 103.895V82.43L192.575 81.395V79.37H205.445C207.095 79.37 208.67 79.67 210.17 80.27C211.67 80.87 212.885 81.755 213.815 82.925C214.775 84.095 215.255 85.565 215.255 87.335C215.255 88.895 214.94 90.23 214.31 91.34C213.71 92.45 212.9 93.365 211.88 94.085C210.89 94.775 209.78 95.285 208.55 95.615C207.35 95.915 206.135 96.065 204.905 96.065C204.875 96.065 204.68 96.065 204.32 96.065C203.99 96.035 203.63 96.005 203.24 95.975C202.88 95.945 202.625 95.915 202.475 95.885V103.895L207.245 104.93V107H192.62ZM203.825 93.815C204.995 93.815 205.97 93.545 206.75 93.005C207.53 92.435 208.115 91.685 208.505 90.755C208.895 89.825 209.09 88.79 209.09 87.65C209.09 86.03 208.715 84.725 207.965 83.735C207.245 82.715 206.24 82.205 204.95 82.205C204.56 82.205 204.14 82.22 203.69 82.25C203.27 82.28 202.865 82.34 202.475 82.43V93.68C202.625 93.71 202.805 93.74 203.015 93.77C203.255 93.8 203.525 93.815 203.825 93.815ZM222.143 107.45C221.033 107.45 220.073 107.225 219.263 106.775C218.483 106.325 217.883 105.68 217.463 104.84C217.043 104 216.833 103.025 216.833 101.915C216.833 101.105 216.998 100.265 217.328 99.395C217.658 98.495 218.243 97.685 219.083 96.965C219.923 96.215 221.093 95.69 222.593 95.39L228.668 94.13V90.98C228.668 89.78 228.443 88.955 227.993 88.505C227.573 88.055 226.838 87.83 225.788 87.83C225.218 87.83 224.678 87.89 224.168 88.01C223.688 88.1 223.223 88.22 222.773 88.37L221.873 92.15H218.903L218.138 86.075C219.548 85.565 221.033 85.16 222.593 84.86C224.183 84.56 225.803 84.41 227.453 84.41C228.953 84.41 230.243 84.575 231.323 84.905C232.433 85.205 233.273 85.76 233.843 86.57C234.443 87.38 234.743 88.535 234.743 90.035V103.265L238.028 104.525V106.46C236.978 106.73 236.123 106.925 235.463 107.045C234.803 107.165 234.083 107.225 233.303 107.225C232.343 107.225 231.413 107.03 230.513 106.64C229.613 106.25 229.043 105.65 228.803 104.84C227.693 105.65 226.628 106.295 225.608 106.775C224.588 107.225 223.433 107.45 222.143 107.45ZM225.113 103.805C225.743 103.805 226.388 103.67 227.048 103.4C227.738 103.13 228.278 102.86 228.668 102.59V96.74L225.968 97.415C224.768 97.715 223.928 98.195 223.448 98.855C222.998 99.485 222.773 100.295 222.773 101.285C222.773 102.155 222.983 102.8 223.403 103.22C223.823 103.61 224.393 103.805 225.113 103.805ZM243.728 114.56C243.038 114.56 242.228 114.455 241.298 114.245C240.398 114.035 239.438 113.705 238.418 113.255L238.778 111.185H241.703C242.783 111.185 243.698 110.915 244.448 110.375C245.228 109.865 245.873 109.19 246.383 108.35C246.923 107.54 247.358 106.7 247.688 105.83L239.993 87.875L237.743 86.66V84.86H248.543V86.66L246.428 87.875L250.748 99.17L254.528 87.965L251.648 87.335V84.86H261.413V87.2L258.578 87.965L252.188 105.47C251.168 108.29 250.013 110.51 248.723 112.13C247.433 113.75 245.768 114.56 243.728 114.56ZM261.91 107V104.75L265.42 103.85V88.82L261.91 88.325V86.165L269.47 84.41H271.495V86.48C272.485 85.82 273.595 85.295 274.825 84.905C276.055 84.485 277.18 84.275 278.2 84.275C278.38 84.275 278.605 84.275 278.875 84.275C279.175 84.275 279.385 84.29 279.505 84.32L278.65 92.375H275.365L274.42 88.235C273.94 88.235 273.43 88.295 272.89 88.415C272.38 88.535 271.915 88.715 271.495 88.955V103.85L276.715 104.75V107H261.91ZM291.656 107.45C289.046 107.45 286.931 106.925 285.311 105.875C283.691 104.825 282.506 103.445 281.756 101.735C281.006 99.995 280.631 98.09 280.631 96.02C280.631 93.86 280.991 91.91 281.711 90.17C282.461 88.4 283.646 87.005 285.266 85.985C286.886 84.935 289.016 84.41 291.656 84.41C294.386 84.41 296.561 84.935 298.181 85.985C299.831 87.005 301.016 88.4 301.736 90.17C302.486 91.91 302.861 93.86 302.861 96.02C302.861 98.09 302.486 99.995 301.736 101.735C300.986 103.445 299.786 104.825 298.136 105.875C296.516 106.925 294.356 107.45 291.656 107.45ZM291.836 104.39C293.096 104.39 294.041 104.015 294.671 103.265C295.331 102.515 295.766 101.51 295.976 100.25C296.216 98.96 296.336 97.52 296.336 95.93C296.336 94.31 296.201 92.87 295.931 91.61C295.691 90.32 295.226 89.315 294.536 88.595C293.846 87.845 292.856 87.47 291.566 87.47C290.366 87.47 289.451 87.845 288.821 88.595C288.191 89.315 287.756 90.32 287.516 91.61C287.276 92.87 287.156 94.31 287.156 95.93C287.156 97.52 287.276 98.96 287.516 100.25C287.786 101.51 288.251 102.515 288.911 103.265C289.601 104.015 290.576 104.39 291.836 104.39ZM304.658 107V104.75L308.168 103.85V78.515L304.658 78.02V75.86L312.263 74.105H314.243V103.85L317.753 104.75V107H304.658ZM319.82 107V104.75L323.33 103.85V78.515L319.82 78.02V75.86L327.425 74.105H329.405V103.85L332.915 104.75V107H319.82Z" fill="#FD2156"/>
</svg>
