<svg width="413" height="223" viewBox="0 0 413 223" fill="none" xmlns="http://www.w3.org/2000/svg">
<circle cx="147" cy="101" r="37" fill="#3AB865"/>
<circle cx="171" cy="101" r="25" fill="white"/>
<path d="M161.62 113V110.975L165.4 109.895V88.43L161.575 87.395V85.37H174.445C176.095 85.37 177.67 85.67 179.17 86.27C180.67 86.87 181.885 87.755 182.815 88.925C183.775 90.095 184.255 91.565 184.255 93.335C184.255 94.895 183.94 96.23 183.31 97.34C182.71 98.45 181.9 99.365 180.88 100.085C179.89 100.775 178.78 101.285 177.55 101.615C176.35 101.915 175.135 102.065 173.905 102.065C173.875 102.065 173.68 102.065 173.32 102.065C172.99 102.035 172.63 102.005 172.24 101.975C171.88 101.945 171.625 101.915 171.475 101.885V109.895L176.245 110.93V113H161.62ZM172.825 99.815C173.995 99.815 174.97 99.545 175.75 99.005C176.53 98.435 177.115 97.685 177.505 96.755C177.895 95.825 178.09 94.79 178.09 93.65C178.09 92.03 177.715 90.725 176.965 89.735C176.245 88.715 175.24 88.205 173.95 88.205C173.56 88.205 173.14 88.22 172.69 88.25C172.27 88.28 171.865 88.34 171.475 88.43V99.68C171.625 99.71 171.805 99.74 172.015 99.77C172.255 99.8 172.525 99.815 172.825 99.815ZM191.143 113.45C190.033 113.45 189.073 113.225 188.263 112.775C187.483 112.325 186.883 111.68 186.463 110.84C186.043 110 185.833 109.025 185.833 107.915C185.833 107.105 185.998 106.265 186.328 105.395C186.658 104.495 187.243 103.685 188.083 102.965C188.923 102.215 190.093 101.69 191.593 101.39L197.668 100.13V96.98C197.668 95.78 197.443 94.955 196.993 94.505C196.573 94.055 195.838 93.83 194.788 93.83C194.218 93.83 193.678 93.89 193.168 94.01C192.688 94.1 192.223 94.22 191.773 94.37L190.873 98.15H187.903L187.138 92.075C188.548 91.565 190.033 91.16 191.593 90.86C193.183 90.56 194.803 90.41 196.453 90.41C197.953 90.41 199.243 90.575 200.323 90.905C201.433 91.205 202.273 91.76 202.843 92.57C203.443 93.38 203.743 94.535 203.743 96.035V109.265L207.028 110.525V112.46C205.978 112.73 205.123 112.925 204.463 113.045C203.803 113.165 203.083 113.225 202.303 113.225C201.343 113.225 200.413 113.03 199.513 112.64C198.613 112.25 198.043 111.65 197.803 110.84C196.693 111.65 195.628 112.295 194.608 112.775C193.588 113.225 192.433 113.45 191.143 113.45ZM194.113 109.805C194.743 109.805 195.388 109.67 196.048 109.4C196.738 109.13 197.278 108.86 197.668 108.59V102.74L194.968 103.415C193.768 103.715 192.928 104.195 192.448 104.855C191.998 105.485 191.773 106.295 191.773 107.285C191.773 108.155 191.983 108.8 192.403 109.22C192.823 109.61 193.393 109.805 194.113 109.805ZM212.728 120.56C212.038 120.56 211.228 120.455 210.298 120.245C209.398 120.035 208.438 119.705 207.418 119.255L207.778 117.185H210.703C211.783 117.185 212.698 116.915 213.448 116.375C214.228 115.865 214.873 115.19 215.383 114.35C215.923 113.54 216.358 112.7 216.688 111.83L208.993 93.875L206.743 92.66V90.86H217.543V92.66L215.428 93.875L219.748 105.17L223.528 93.965L220.648 93.335V90.86H230.413V93.2L227.578 93.965L221.188 111.47C220.168 114.29 219.013 116.51 217.723 118.13C216.433 119.75 214.768 120.56 212.728 120.56ZM230.91 113V110.75L234.42 109.85V94.82L230.91 94.325V92.165L238.47 90.41H240.495V92.48C241.485 91.82 242.595 91.295 243.825 90.905C245.055 90.485 246.18 90.275 247.2 90.275C247.38 90.275 247.605 90.275 247.875 90.275C248.175 90.275 248.385 90.29 248.505 90.32L247.65 98.375H244.365L243.42 94.235C242.94 94.235 242.43 94.295 241.89 94.415C241.38 94.535 240.915 94.715 240.495 94.955V109.85L245.715 110.75V113H230.91ZM260.656 113.45C258.046 113.45 255.931 112.925 254.311 111.875C252.691 110.825 251.506 109.445 250.756 107.735C250.006 105.995 249.631 104.09 249.631 102.02C249.631 99.86 249.991 97.91 250.711 96.17C251.461 94.4 252.646 93.005 254.266 91.985C255.886 90.935 258.016 90.41 260.656 90.41C263.386 90.41 265.561 90.935 267.181 91.985C268.831 93.005 270.016 94.4 270.736 96.17C271.486 97.91 271.861 99.86 271.861 102.02C271.861 104.09 271.486 105.995 270.736 107.735C269.986 109.445 268.786 110.825 267.136 111.875C265.516 112.925 263.356 113.45 260.656 113.45ZM260.836 110.39C262.096 110.39 263.041 110.015 263.671 109.265C264.331 108.515 264.766 107.51 264.976 106.25C265.216 104.96 265.336 103.52 265.336 101.93C265.336 100.31 265.201 98.87 264.931 97.61C264.691 96.32 264.226 95.315 263.536 94.595C262.846 93.845 261.856 93.47 260.566 93.47C259.366 93.47 258.451 93.845 257.821 94.595C257.191 95.315 256.756 96.32 256.516 97.61C256.276 98.87 256.156 100.31 256.156 101.93C256.156 103.52 256.276 104.96 256.516 106.25C256.786 107.51 257.251 108.515 257.911 109.265C258.601 110.015 259.576 110.39 260.836 110.39ZM273.658 113V110.75L277.168 109.85V84.515L273.658 84.02V81.86L281.263 80.105H283.243V109.85L286.753 110.75V113H273.658ZM288.82 113V110.75L292.33 109.85V84.515L288.82 84.02V81.86L296.425 80.105H298.405V109.85L301.915 110.75V113H288.82Z" fill="#3AB865"/>
</svg>
