<svg width="643" height="442" viewBox="0 0 643 442" fill="none" xmlns="http://www.w3.org/2000/svg">
<rect width="643" height="442" fill="#4B3AB8"/>
<circle cx="211" cy="200" r="125" transform="rotate(-5.23809 211 200)" fill="white"/>
<circle cx="265.16" cy="200.16" r="100" transform="rotate(-1.25135 265.16 200.16)" fill="#4B3AB8"/>
<path d="M225.6 230V225.5L234 223.1V175.4L225.5 173.1V168.6H254.1C257.767 168.6 261.267 169.267 264.6 170.6C267.933 171.933 270.633 173.9 272.7 176.5C274.833 179.1 275.9 182.367 275.9 186.3C275.9 189.767 275.2 192.733 273.8 195.2C272.467 197.667 270.667 199.7 268.4 201.3C266.2 202.833 263.733 203.967 261 204.7C258.333 205.367 255.633 205.7 252.9 205.7C252.833 205.7 252.4 205.7 251.6 205.7C250.867 205.633 250.067 205.567 249.2 205.5C248.4 205.433 247.833 205.367 247.5 205.3V223.1L258.1 225.4V230H225.6ZM250.5 200.7C253.1 200.7 255.267 200.1 257 198.9C258.733 197.633 260.033 195.967 260.9 193.9C261.767 191.833 262.2 189.533 262.2 187C262.2 183.4 261.367 180.5 259.7 178.3C258.1 176.033 255.867 174.9 253 174.9C252.133 174.9 251.2 174.933 250.2 175C249.267 175.067 248.367 175.2 247.5 175.4V200.4C247.833 200.467 248.233 200.533 248.7 200.6C249.233 200.667 249.833 200.7 250.5 200.7ZM291.206 231C288.74 231 286.606 230.5 284.806 229.5C283.073 228.5 281.74 227.067 280.806 225.2C279.873 223.333 279.406 221.167 279.406 218.7C279.406 216.9 279.773 215.033 280.506 213.1C281.24 211.1 282.54 209.3 284.406 207.7C286.273 206.033 288.873 204.867 292.206 204.2L305.706 201.4V194.4C305.706 191.733 305.206 189.9 304.206 188.9C303.273 187.9 301.64 187.4 299.306 187.4C298.04 187.4 296.84 187.533 295.706 187.8C294.64 188 293.606 188.267 292.606 188.6L290.606 197H284.006L282.306 183.5C285.44 182.367 288.74 181.467 292.206 180.8C295.74 180.133 299.34 179.8 303.006 179.8C306.34 179.8 309.206 180.167 311.606 180.9C314.073 181.567 315.94 182.8 317.206 184.6C318.54 186.4 319.206 188.967 319.206 192.3V221.7L326.506 224.5V228.8C324.173 229.4 322.273 229.833 320.806 230.1C319.34 230.367 317.74 230.5 316.006 230.5C313.873 230.5 311.806 230.067 309.806 229.2C307.806 228.333 306.54 227 306.006 225.2C303.54 227 301.173 228.433 298.906 229.5C296.64 230.5 294.073 231 291.206 231ZM297.806 222.9C299.206 222.9 300.64 222.6 302.106 222C303.64 221.4 304.84 220.8 305.706 220.2V207.2L299.706 208.7C297.04 209.367 295.173 210.433 294.106 211.9C293.106 213.3 292.606 215.1 292.606 217.3C292.606 219.233 293.073 220.667 294.006 221.6C294.94 222.467 296.206 222.9 297.806 222.9ZM339.173 246.8C337.64 246.8 335.84 246.567 333.773 246.1C331.773 245.633 329.64 244.9 327.373 243.9L328.173 239.3H334.673C337.073 239.3 339.107 238.7 340.773 237.5C342.507 236.367 343.94 234.867 345.073 233C346.273 231.2 347.24 229.333 347.973 227.4L330.873 187.5L325.873 184.8V180.8H349.873V184.8L345.173 187.5L354.773 212.6L363.173 187.7L356.773 186.3V180.8H378.473V186L372.173 187.7L357.973 226.6C355.707 232.867 353.14 237.8 350.273 241.4C347.407 245 343.707 246.8 339.173 246.8ZM379.578 230V225L387.378 223V189.6L379.578 188.5V183.7L396.378 179.8H400.878V184.4C403.078 182.933 405.545 181.767 408.278 180.9C411.011 179.967 413.511 179.5 415.778 179.5C416.178 179.5 416.678 179.5 417.278 179.5C417.945 179.5 418.411 179.533 418.678 179.6L416.778 197.5H409.478L407.378 188.3C406.311 188.3 405.178 188.433 403.978 188.7C402.845 188.967 401.811 189.367 400.878 189.9V223L412.478 225V230H379.578ZM445.68 231C439.88 231 435.18 229.833 431.58 227.5C427.98 225.167 425.346 222.1 423.68 218.3C422.013 214.433 421.18 210.2 421.18 205.6C421.18 200.8 421.98 196.467 423.58 192.6C425.246 188.667 427.88 185.567 431.48 183.3C435.08 180.967 439.813 179.8 445.68 179.8C451.746 179.8 456.58 180.967 460.18 183.3C463.846 185.567 466.48 188.667 468.08 192.6C469.746 196.467 470.58 200.8 470.58 205.6C470.58 210.2 469.746 214.433 468.08 218.3C466.413 222.1 463.746 225.167 460.08 227.5C456.48 229.833 451.68 231 445.68 231ZM446.08 224.2C448.88 224.2 450.98 223.367 452.38 221.7C453.846 220.033 454.813 217.8 455.28 215C455.813 212.133 456.08 208.933 456.08 205.4C456.08 201.8 455.78 198.6 455.18 195.8C454.646 192.933 453.613 190.7 452.08 189.1C450.546 187.433 448.346 186.6 445.48 186.6C442.813 186.6 440.78 187.433 439.38 189.1C437.98 190.7 437.013 192.933 436.48 195.8C435.946 198.6 435.68 201.8 435.68 205.4C435.68 208.933 435.946 212.133 436.48 215C437.08 217.8 438.113 220.033 439.58 221.7C441.113 223.367 443.28 224.2 446.08 224.2ZM474.574 230V225L482.374 223V166.7L474.574 165.6V160.8L491.474 156.9H495.874V223L503.674 225V230H474.574ZM508.266 230V225L516.066 223V166.7L508.266 165.6V160.8L525.166 156.9H529.566V223L537.366 225V230H508.266Z" fill="white"/>
</svg>
