<svg width="538" height="231" viewBox="0 0 538 231" fill="none" xmlns="http://www.w3.org/2000/svg">
<g clip-path="url(#clip0_1_51)">
<circle cx="240" cy="57" r="37" fill="#AB25B7"/>
<circle cx="264" cy="57" r="25" fill="white"/>
<path d="M254.62 69V66.975L258.4 65.895V44.43L254.575 43.395V41.37H267.445C269.095 41.37 270.67 41.67 272.17 42.27C273.67 42.87 274.885 43.755 275.815 44.925C276.775 46.095 277.255 47.565 277.255 49.335C277.255 50.895 276.94 52.23 276.31 53.34C275.71 54.45 274.9 55.365 273.88 56.085C272.89 56.775 271.78 57.285 270.55 57.615C269.35 57.915 268.135 58.065 266.905 58.065C266.875 58.065 266.68 58.065 266.32 58.065C265.99 58.035 265.63 58.005 265.24 57.975C264.88 57.945 264.625 57.915 264.475 57.885V65.895L269.245 66.93V69H254.62ZM265.825 55.815C266.995 55.815 267.97 55.545 268.75 55.005C269.53 54.435 270.115 53.685 270.505 52.755C270.895 51.825 271.09 50.79 271.09 49.65C271.09 48.03 270.715 46.725 269.965 45.735C269.245 44.715 268.24 44.205 266.95 44.205C266.56 44.205 266.14 44.22 265.69 44.25C265.27 44.28 264.865 44.34 264.475 44.43V55.68C264.625 55.71 264.805 55.74 265.015 55.77C265.255 55.8 265.525 55.815 265.825 55.815ZM284.143 69.45C283.033 69.45 282.073 69.225 281.263 68.775C280.483 68.325 279.883 67.68 279.463 66.84C279.043 66 278.833 65.025 278.833 63.915C278.833 63.105 278.998 62.265 279.328 61.395C279.658 60.495 280.243 59.685 281.083 58.965C281.923 58.215 283.093 57.69 284.593 57.39L290.668 56.13V52.98C290.668 51.78 290.443 50.955 289.993 50.505C289.573 50.055 288.838 49.83 287.788 49.83C287.218 49.83 286.678 49.89 286.168 50.01C285.688 50.1 285.223 50.22 284.773 50.37L283.873 54.15H280.903L280.138 48.075C281.548 47.565 283.033 47.16 284.593 46.86C286.183 46.56 287.803 46.41 289.453 46.41C290.953 46.41 292.243 46.575 293.323 46.905C294.433 47.205 295.273 47.76 295.843 48.57C296.443 49.38 296.743 50.535 296.743 52.035V65.265L300.028 66.525V68.46C298.978 68.73 298.123 68.925 297.463 69.045C296.803 69.165 296.083 69.225 295.303 69.225C294.343 69.225 293.413 69.03 292.513 68.64C291.613 68.25 291.043 67.65 290.803 66.84C289.693 67.65 288.628 68.295 287.608 68.775C286.588 69.225 285.433 69.45 284.143 69.45ZM287.113 65.805C287.743 65.805 288.388 65.67 289.048 65.4C289.738 65.13 290.278 64.86 290.668 64.59V58.74L287.968 59.415C286.768 59.715 285.928 60.195 285.448 60.855C284.998 61.485 284.773 62.295 284.773 63.285C284.773 64.155 284.983 64.8 285.403 65.22C285.823 65.61 286.393 65.805 287.113 65.805ZM305.728 76.56C305.038 76.56 304.228 76.455 303.298 76.245C302.398 76.035 301.438 75.705 300.418 75.255L300.778 73.185H303.703C304.783 73.185 305.698 72.915 306.448 72.375C307.228 71.865 307.873 71.19 308.383 70.35C308.923 69.54 309.358 68.7 309.688 67.83L301.993 49.875L299.743 48.66V46.86H310.543V48.66L308.428 49.875L312.748 61.17L316.528 49.965L313.648 49.335V46.86H323.413V49.2L320.578 49.965L314.188 67.47C313.168 70.29 312.013 72.51 310.723 74.13C309.433 75.75 307.768 76.56 305.728 76.56ZM323.91 69V66.75L327.42 65.85V50.82L323.91 50.325V48.165L331.47 46.41H333.495V48.48C334.485 47.82 335.595 47.295 336.825 46.905C338.055 46.485 339.18 46.275 340.2 46.275C340.38 46.275 340.605 46.275 340.875 46.275C341.175 46.275 341.385 46.29 341.505 46.32L340.65 54.375H337.365L336.42 50.235C335.94 50.235 335.43 50.295 334.89 50.415C334.38 50.535 333.915 50.715 333.495 50.955V65.85L338.715 66.75V69H323.91ZM353.656 69.45C351.046 69.45 348.931 68.925 347.311 67.875C345.691 66.825 344.506 65.445 343.756 63.735C343.006 61.995 342.631 60.09 342.631 58.02C342.631 55.86 342.991 53.91 343.711 52.17C344.461 50.4 345.646 49.005 347.266 47.985C348.886 46.935 351.016 46.41 353.656 46.41C356.386 46.41 358.561 46.935 360.181 47.985C361.831 49.005 363.016 50.4 363.736 52.17C364.486 53.91 364.861 55.86 364.861 58.02C364.861 60.09 364.486 61.995 363.736 63.735C362.986 65.445 361.786 66.825 360.136 67.875C358.516 68.925 356.356 69.45 353.656 69.45ZM353.836 66.39C355.096 66.39 356.041 66.015 356.671 65.265C357.331 64.515 357.766 63.51 357.976 62.25C358.216 60.96 358.336 59.52 358.336 57.93C358.336 56.31 358.201 54.87 357.931 53.61C357.691 52.32 357.226 51.315 356.536 50.595C355.846 49.845 354.856 49.47 353.566 49.47C352.366 49.47 351.451 49.845 350.821 50.595C350.191 51.315 349.756 52.32 349.516 53.61C349.276 54.87 349.156 56.31 349.156 57.93C349.156 59.52 349.276 60.96 349.516 62.25C349.786 63.51 350.251 64.515 350.911 65.265C351.601 66.015 352.576 66.39 353.836 66.39ZM366.658 69V66.75L370.168 65.85V40.515L366.658 40.02V37.86L374.263 36.105H376.243V65.85L379.753 66.75V69H366.658ZM381.82 69V66.75L385.33 65.85V40.515L381.82 40.02V37.86L389.425 36.105H391.405V65.85L394.915 66.75V69H381.82Z" fill="#AB25B7"/>
</g>
<defs>
<clipPath id="clip0_1_51">
<rect width="538" height="231" fill="white"/>
</clipPath>
</defs>
</svg>
